<svg xmlns="http://www.w3.org/2000/svg" viewBox="0 0 1200 630" role="img" aria-label="Target Depth">
  <rect width="1200" height="630" fill="#061323"/>
  <path d="M0 0h1200v630H0z" fill="url(#bg)"/>
  <path d="M0 120h1200M0 240h1200M0 360h1200M0 480h1200M150 0v630M300 0v630M450 0v630M600 0v630M750 0v630M900 0v630M1050 0v630" stroke="#1d3555" stroke-width="1"/>
  <text x="92" y="94" fill="#ffffff" font-family="Arial, sans-serif" font-size="34" font-weight="900">Target Depth</text>
  <text x="92" y="174" fill="#3dd6ff" font-family="Arial, sans-serif" font-size="24" font-weight="900" letter-spacing="5">СИСТЕМНИЙ КУРС З ТАРГЕТИНГУ</text>
  <text x="92" y="300" fill="#ffffff" font-family="Arial Narrow, Arial, sans-serif" font-size="92" font-weight="900">НЕ ПРОСТО КНОПКИ</text>
  <text x="92" y="395" fill="#ffffff" font-family="Arial Narrow, Arial, sans-serif" font-size="92" font-weight="900">РЕКЛАМА НА СТРАТЕГІЇ</text>
  <rect x="92" y="448" width="260" height="74" rx="4" fill="#c80025"/>
  <text x="222" y="495" fill="#ffffff" font-family="Arial, sans-serif" font-size="24" font-weight="900" text-anchor="middle">ХОЧУ НА КУРС</text>
  <circle cx="900" cy="315" r="172" fill="none" stroke="#3dd6ff" stroke-opacity=".25" stroke-width="2"/>
  <circle cx="900" cy="315" r="102" fill="none" stroke="#3dd6ff" stroke-opacity=".2" stroke-width="2"/>
  <rect x="738" y="250" width="250" height="106" rx="8" fill="#09213b" stroke="#ffffff" stroke-opacity=".14"/>
  <text x="766" y="292" fill="#93a8c0" font-family="Arial, sans-serif" font-size="18" font-weight="900">CAMPAIGN SYSTEM</text>
  <text x="766" y="329" fill="#ffffff" font-family="Arial, sans-serif" font-size="30" font-weight="900">STRATEGY → SCALE</text>
  <defs><linearGradient id="bg" x1="0" x2="1" y1="0" y2="1"><stop stop-color="#020814"/><stop offset=".45" stop-color="#06182c"/><stop offset="1" stop-color="#0a56d6"/></linearGradient></defs>
</svg>
